<?xml version="1.0" standalone="no"?>
<!DOCTYPE svg PUBLIC "-//W3C//DTD SVG 20010904//EN"
 "http://www.w3.org/TR/2001/REC-SVG-20010904/DTD/svg10.dtd">
<svg version="1.0" xmlns="http://www.w3.org/2000/svg"
 width="128.000000pt" height="128.000000pt" viewBox="0 0 128.000000 128.000000"
 preserveAspectRatio="xMidYMid meet">
<metadata>
Created by potrace 1.14, written by Peter Selinger 2001-2017
</metadata>
<g transform="translate(0.000000,128.000000) scale(0.100000,-0.100000)"
fill="#000000" stroke="none">
<path d="M0 640 l0 -640 640 0 640 0 0 640 0 640 -640 0 -640 0 0 -640z m297
304 c-3 -19 -2 -32 3 -29 9 6 84 -74 76 -82 -3 -3 -12 2 -21 11 -20 20 -35 13
-28 -13 6 -25 25 -32 64 -24 29 5 30 8 28 49 -2 31 2 49 16 64 21 23 35 26 35
8 0 -7 21 -40 46 -73 38 -50 45 -66 42 -97 -2 -20 0 -34 4 -32 4 3 24 -11 43
-30 l35 -35 35 35 c19 19 39 33 43 30 4 -2 6 12 4 32 -3 31 4 47 42 97 25 33
46 66 46 73 0 18 14 15 35 -8 14 -15 18 -33 16 -64 -2 -41 -1 -44 28 -49 39
-8 58 -1 64 24 7 26 -8 33 -28 13 -9 -9 -18 -14 -22 -11 -7 7 67 83 78 80 4
-2 5 13 2 31 -3 19 -1 36 6 40 7 4 9 1 5 -8 -6 -15 10 -51 33 -74 10 -10 11
-18 3 -27 -6 -7 -9 -33 -8 -57 l3 -43 54 0 c45 1 50 -1 35 -12 -15 -11 -52
-18 -76 -14 -17 2 -7 -77 12 -102 20 -25 20 -28 5 -56 -8 -17 -15 -36 -15 -44
0 -32 -110 -91 -125 -67 -3 5 2 10 13 10 10 0 31 13 47 30 41 43 37 91 -12
143 -21 21 -31 37 -23 35 10 -2 16 6 18 22 3 23 -1 25 -37 28 -38 2 -41 0 -56
-34 -19 -46 -21 -129 -2 -118 6 4 4 -2 -6 -13 -22 -25 -14 -105 15 -146 19
-28 19 -28 -1 -15 -21 13 -44 53 -59 103 -6 20 -16 31 -31 33 -20 3 -22 0 -17
-38 3 -25 14 -52 28 -67 15 -16 19 -26 11 -31 -6 -4 -16 -25 -23 -47 -14 -45
-65 -85 -108 -85 l-27 1 31 13 c73 32 86 109 29 165 -20 19 -31 37 -26 40 5 3
11 15 13 26 3 18 -3 20 -52 20 -49 0 -55 -2 -52 -20 2 -11 8 -23 13 -26 5 -3
-6 -21 -26 -40 -57 -56 -44 -133 29 -165 l31 -13 -27 -1 c-43 0 -94 40 -108
85 -7 22 -17 43 -23 47 -8 5 -4 15 11 31 14 15 25 42 28 67 5 38 3 41 -17 38
-17 -2 -26 -16 -40 -58 -10 -30 -19 -56 -19 -56 0 -1 -12 -9 -26 -19 l-26 -17
20 29 c29 41 37 121 15 146 -10 11 -12 17 -5 13 18 -11 16 72 -3 118 -15 34
-18 36 -56 34 -36 -3 -40 -5 -37 -28 2 -16 8 -24 18 -22 8 2 -2 -14 -22 -35
-49 -51 -53 -105 -10 -146 15 -15 36 -27 46 -27 9 0 14 -5 11 -10 -15 -24
-125 35 -125 67 0 8 -7 27 -15 44 -15 28 -15 31 5 56 19 25 29 104 13 102 -25
-4 -62 3 -77 14 -15 11 -10 13 35 12 l54 0 3 43 c1 24 -2 50 -8 57 -8 9 -7 17
3 27 23 23 39 59 33 74 -4 9 -2 12 5 8 7 -4 9 -21 6 -40z m372 -164 c10 0 24
-7 31 -15 10 -12 7 -14 -20 -10 -24 3 -30 0 -26 -10 2 -7 -2 -19 -10 -25 -12
-10 -14 -8 -14 14 0 22 -4 27 -22 24 -11 -2 -23 3 -25 10 -3 7 5 12 22 12 26
0 27 2 23 43 -2 23 1 47 6 53 8 9 12 -4 14 -42 2 -45 6 -54 21 -54z"/>
<path d="M493 795 c3 -19 1 -37 -4 -41 -11 -7 -1 -103 13 -121 6 -7 5 -20 -2
-34 -10 -17 -9 -20 2 -17 17 6 24 108 7 108 -6 0 0 15 15 34 32 43 32 56 3 84
-32 31 -41 27 -34 -13z"/>
<path d="M752 807 c-28 -30 -28 -41 4 -83 15 -19 21 -34 15 -34 -17 0 -10
-102 7 -108 11 -3 12 0 4 15 -6 10 -7 25 -2 33 13 25 21 118 11 124 -5 4 -7
22 -4 41 7 41 -5 44 -35 12z"/>
<path d="M590 646 c0 -27 16 -34 68 -28 26 3 32 9 32 28 0 28 -7 30 -32 7 -17
-15 -19 -15 -36 0 -25 23 -32 21 -32 -7z"/>
</g>
</svg>
